<?xml version="1.0" standalone="no"?><!DOCTYPE svg PUBLIC "-//W3C//DTD SVG 1.1//EN" "http://www.w3.org/Graphics/SVG/1.1/DTD/svg11.dtd"><svg class="icon" width="48px" height="48.00px" viewBox="0 0 1024 1024" version="1.1" xmlns="http://www.w3.org/2000/svg"><path fill="#ffffff" d="M401.111 466.22l-31.153 183.259a8 8 0 0 0 7.886 9.34h106.468a8 8 0 0 0 6.464-3.287l99.814-136.904a8 8 0 0 1 6.464-3.287h177.66a8 8 0 0 1 5.496 2.187l127.787 120.849a8 8 0 0 1 2.503 5.812v259.117a8 8 0 0 1-8 8h-781a8 8 0 0 1-8-8V527.973a8 8 0 0 1 6.494-7.857L401.11 466.22z m224.31-353.526a8 8 0 0 1 6.78 12.249L527.344 292.244h137.627a8 8 0 0 1 6.442 12.743L457.112 596.036a8 8 0 0 1-14.272-6.387l43.585-207.63h-131.21a8 8 0 0 1-7.381-11.084L453.68 117.61a8 8 0 0 1 7.382-4.916h164.36z" /></svg>