<?xml version="1.0" standalone="no"?><!DOCTYPE svg PUBLIC "-//W3C//DTD SVG 1.1//EN" "http://www.w3.org/Graphics/SVG/1.1/DTD/svg11.dtd"><svg class="icon" width="48px" height="48.00px" viewBox="0 0 1024 1024" version="1.1" xmlns="http://www.w3.org/2000/svg"><path fill="#ffffff" d="M725.386 716l1.606 0.012c52.923 0.787 97.166 40.415 97.166 91.488s-44.243 90.7-97.166 91.488l-1.606 0.012h-4.148l-0.596-0.005c-19.607-0.318-35.404-16.312-35.404-35.995 0-19.683 15.797-35.677 35.404-35.995l0.596-0.005h4.148l0.47-0.003c15.455-0.193 26.302-9.879 26.302-19.497s-10.847-19.304-26.302-19.497l-0.47-0.003H244.123v-72h481.263zM538.123 827v72h-294v-72h294z m88.254-702c143.87 0 260.5 116.63 260.5 260.5 0 140.751-111.628 255.43-251.183 260.336V646H345.314l-3.422-0.028c-113.405-1.839-204.77-94.342-204.77-208.185 0-114.993 93.22-208.214 208.213-208.214 22.696 0 44.544 3.632 64.994 10.345C457.13 170.588 536.43 125 626.377 125z" /></svg>