<?xml version="1.0" standalone="no"?><!DOCTYPE svg PUBLIC "-//W3C//DTD SVG 1.1//EN" "http://www.w3.org/Graphics/SVG/1.1/DTD/svg11.dtd"><svg class="icon" width="48px" height="48.00px" viewBox="0 0 1024 1024" version="1.1" xmlns="http://www.w3.org/2000/svg"><path fill="#ffffff" d="M554 784v138h-84V784h84z m180.032-109.365l97.58 97.58-59.397 59.397-97.58-97.58 59.397-59.397z m-444.064 0l59.397 59.397-97.58 97.58-59.397-59.397 97.58-97.58zM512 292c121.503 0 220 98.497 220 220s-98.497 220-220 220-220-98.497-220-220 98.497-220 220-220z m410 178v84H784v-84h138z m-682 0v84H102v-84h138z m11.785-277.612l97.58 97.58-59.397 59.397-97.58-97.58 59.397-59.397z m520.43 0l59.397 59.397-97.58 97.58-59.397-59.397 97.58-97.58zM554 102v138h-84V102h84z" /></svg>