<?xml version="1.0" standalone="no"?><!DOCTYPE svg PUBLIC "-//W3C//DTD SVG 1.1//EN" "http://www.w3.org/Graphics/SVG/1.1/DTD/svg11.dtd"><svg class="icon" width="48px" height="48.00px" viewBox="0 0 1024 1024" version="1.1" xmlns="http://www.w3.org/2000/svg"><path fill="#ffffff" d="M553.5 780.734v139.043h-84V780.734h84z m-139.239-23.448V896.33h-84V757.286h84z m278.478 0V896.33h-84V757.286h84z m-417.717-46.509v139.044h-84V710.777h84z m556.956 0v139.044h-84V710.777h84zM634.5 104.223c154.087 0 279 124.912 279 279 0 150.747-119.556 273.57-269.021 278.824l-0.001 0.176h-311l-3.666-0.03C208.354 660.223 110.5 561.15 110.5 439.223c0-123.16 99.84-223 223-223 24.308 0 47.707 3.889 69.61 11.079 50.123-74.254 135.055-123.08 231.39-123.08z" /></svg>