<?xml version="1.0" standalone="no"?><!DOCTYPE svg PUBLIC "-//W3C//DTD SVG 1.1//EN" "http://www.w3.org/Graphics/SVG/1.1/DTD/svg11.dtd"><svg class="icon" width="48px" height="48.00px" viewBox="0 0 1024 1024" version="1.1" xmlns="http://www.w3.org/2000/svg"><path fill="#ffffff" d="M741.63 753.106A297.945 297.945 0 0 0 791.071 591.1l0.01-2.525-0.01-2.24a297.9 297.9 0 0 0-88.139-209.156l-8.095-8.028-160.863-159.929L652.399 91.5l191.112 190.003 7.59 7.527a279.307 279.307 0 0 1 82.612 193.892l0.026 2.21 0.009 2.1-0.009 2.367c-0.588 73.673-30.267 144.174-82.574 196.039-31.886 31.69-69.509 54.18-109.536 67.468z m-555.458 91.548l-3.702-3.621-1.677-1.677a311.947 311.947 0 0 1-90.54-219.75c0-82.352 32.562-161.337 90.464-219.676l1.763-1.762L404.467 177.5l213.446 212.208 8.477 8.406a311.948 311.948 0 0 1 92.266 216.551l0.03 2.469 0.009 2.344-0.01 2.644c-0.657 82.283-33.804 161.023-92.224 218.95-121.445 120.699-317.39 121.892-440.29 3.582z m93.982-148.905h39.76v-71.96h16.52c43.12 0 56-24.92 56-64.12 0-38.92-12.88-63.28-56-63.28h-56.28v199.36z m209.16 0h39.76v-199.36h-39.76v80.08h-33.04v-80.08h-39.76v199.36h39.76v-83.44h33.04v83.44z m-169.4-107.8v-55.72h16.8c8.148 0 12.149 4.39 14.106 10.412l0.18 0.578c0.117 0.39 0.225 0.784 0.326 1.184l0.145 0.605c0.047 0.203 0.092 0.407 0.135 0.613l0.125 0.62c0.02 0.103 0.04 0.207 0.058 0.312l0.11 0.63 0.1 0.634 0.092 0.641 0.083 0.646 0.075 0.65 0.067 0.653 0.06 0.657 0.053 0.66 0.068 0.993 0.037 0.664 0.046 0.997 0.037 1.061 0.026 1.06 0.014 0.773c0.008 0.6 0.013 1.198 0.015 1.79l0.002 0.887c0 0.882-0.005 1.777-0.017 2.68l-0.014 0.776-0.026 1.064-0.037 1.066-0.046 1.003-0.058 1.002-0.047 0.666-0.053 0.665-0.06 0.662-0.067 0.659-0.075 0.656-0.083 0.651-0.091 0.647-0.1 0.641-0.11 0.636-0.12 0.63c-0.063 0.313-0.129 0.624-0.199 0.932l-0.145 0.611-0.077 0.303-0.163 0.6-0.086 0.295-0.18 0.586c-1.957 6.096-5.958 10.569-14.106 10.569h-16.8z" /></svg>