<?xml version="1.0" standalone="no"?><!DOCTYPE svg PUBLIC "-//W3C//DTD SVG 1.1//EN" "http://www.w3.org/Graphics/SVG/1.1/DTD/svg11.dtd"><svg class="icon" width="48px" height="48.00px" viewBox="0 0 1024 1024" version="1.1" xmlns="http://www.w3.org/2000/svg"><path fill="#ffffff" d="M489.489 246.516c185.291 0 335.5 150.209 335.5 335.5 0 185.292-150.209 335.5-335.5 335.5-185.292 0-335.5-150.208-335.5-335.5 0-185.291 150.208-335.5 335.5-335.5zM369.802 479.841h-0.774c-22.939 0.1-43.119 7.983-60.541 23.65-18.455 16.276-27.938 42.548-28.45 78.817 0.512 35.883 9.995 61.835 28.45 77.855 17.814 16.02 38.51 24.029 62.092 24.029 15.507-0.256 29.155-3.653 40.946-10.189 11.488-6.118 21.516-14.001 30.084-23.648l0.673-0.765-29.604-26.336-0.367 0.488c-10.084 13.262-23.482 20.02-40.195 20.273-34.09 0.64-51.39-19.928-51.903-61.707 0.513-42.036 17.814-62.797 51.903-62.284 16.708 0.506 30.103 7.325 40.185 20.458l0.377 0.495 29.604-26.336-0.625-0.747c-8.579-10.16-18.623-18.306-30.132-24.436-11.555-6.028-24.894-9.226-40.018-9.592l-0.928-0.02-0.777-0.005z m172.826 0.006c-15.25 0.256-27.745 2.883-37.485 7.881-9.868 5.255-17.558 11.214-23.068 17.878-7.433 7.561-12.944 16.853-16.533 27.874-3.46 11.278-5.19 27.426-5.19 48.443 0 21.018 1.73 37.037 5.19 48.059 3.589 11.021 9.1 20.569 16.533 28.643 5.51 6.28 13.2 11.918 23.068 16.916 9.74 5.511 22.235 8.395 37.485 8.65 15.764-0.255 28.515-3.139 38.255-8.65 5.255-2.306 9.548-5.062 12.88-8.266 3.716-2.82 6.856-5.703 9.42-8.65 7.945-8.074 13.584-17.622 16.916-28.643 3.204-11.022 4.806-27.041 4.806-48.059 0-21.017-1.602-37.165-4.806-48.443-3.332-11.021-8.97-20.313-16.917-27.874-5.254-6.664-12.687-12.623-22.299-17.878-9.74-4.998-22.491-7.625-38.255-7.881z m129.016 97.343c-7.177 0.086-13.221 2.606-18.134 7.561-4.754 4.963-7.35 11.208-7.79 18.735l-0.028 0.553h13.329l0.054-0.454c0.524-4.053 2-7.213 4.431-9.478 2.435-2.35 5.49-3.524 9.163-3.524 4.144 0.085 7.348 1.43 9.612 4.036 2.179 2.606 3.268 5.66 3.268 9.164 0 1.324-0.17 2.734-0.513 4.229-0.476 1.467-1.338 3.046-2.588 4.734l-0.295 0.392-36.46 45.624v12.623h53.248v-13.392H663.25l30.052-37.678 0.337-0.437c3.535-4.68 5.302-10.002 5.302-15.967-0.085-7.69-2.67-14.033-7.753-19.031-4.998-5.041-11.513-7.604-19.544-7.69z m-129.016-57.166c7.305 0 13.713 1.345 19.224 4.037 5.767 2.563 10.124 6.087 13.072 10.572 3.973 4.742 6.6 10.253 7.882 16.533 1.281 6.536 1.922 16.916 1.922 31.142 0 13.584-0.64 23.58-1.922 29.988-1.282 6.536-3.91 12.303-7.882 17.301-2.948 3.845-7.305 7.241-13.072 10.189-5.51 2.82-11.919 4.229-19.224 4.229-6.792 0-13.071-1.41-18.838-4.23-5.511-2.947-9.997-6.343-13.457-10.188-3.46-4.998-5.96-10.765-7.497-17.3-1.538-6.409-2.307-16.533-2.307-30.374 0-13.969 0.77-24.221 2.307-30.757 1.538-6.28 4.037-11.79 7.497-16.533 3.46-4.485 7.946-8.01 13.457-10.572 5.767-2.692 12.046-4.037 18.838-4.037z m-339.617-295.54c26.51 0 48 21.49 48 48s-21.49 48-48 48-48-21.49-48-48 21.49-48 48-48z m511-66c31.48 0 57 25.52 57 57s-25.52 57-57 57-57-25.52-57-57 25.52-57 57-57z m-312-52c18.226 0 33 14.774 33 33 0 18.225-14.774 33-33 33-18.225 0-33-14.775-33-33 0-18.226 14.775-33 33-33z m439.5 9c15.74 0 28.5 12.76 28.5 28.5s-12.76 28.5-28.5 28.5-28.5-12.76-28.5-28.5 12.76-28.5 28.5-28.5z" /></svg>