<?xml version="1.0" standalone="no"?><!DOCTYPE svg PUBLIC "-//W3C//DTD SVG 1.1//EN" "http://www.w3.org/Graphics/SVG/1.1/DTD/svg11.dtd"><svg class="icon" width="48px" height="48.00px" viewBox="0 0 1024 1024" version="1.1" xmlns="http://www.w3.org/2000/svg"><path fill="#ffffff" d="M760.81 832.636c-137.495 136.65-360.186 136.633-497.637-0.043l-1.88-1.88a349.638 349.638 0 0 1-101.48-246.302c0-93.234 37.238-182.618 103.37-248.192l248.81-247.33 239.235 237.847 9.501 9.422a349.638 349.638 0 0 1 103.447 245.483l0.011 2.628-0.01 2.963c-0.737 92.224-37.89 180.48-103.368 245.404z m-323.22-89.403c20.742 7.604 43.72-3.045 51.325-23.786 7.605-20.741-3.044-43.72-23.786-51.325l-0.607-0.225c-17.742-6.673-29.348-18.46-36.717-37.697l-0.242-0.616c-8.124-20.218-30.998-30.25-51.42-22.427-20.63 7.903-30.947 31.034-23.044 51.663 15.626 40.788 44.445 69.73 84.491 84.413z" /></svg>