<?xml version="1.0" encoding="UTF-8"?>
<svg width="1024px" height="1024px" viewBox="0 0 1024 1024" version="1.1" xmlns="http://www.w3.org/2000/svg" xmlns:xlink="http://www.w3.org/1999/xlink">
    <title>缩小</title>
    <g id="毛竹系统界面icon" stroke="none" stroke-width="1" fill="none" fill-rule="evenodd">
        <g id="缩小">
            <rect id="Rectangle" x="0" y="0" width="1024" height="1024"></rect>
            <path d="M913,113.027468 L913,913.027468 L113,913.027468 L113,113.027468 L913,113.027468 Z M828.999,197.027 L196.999,197.027 L196.999,829.027 L828.999,829.027 L828.999,197.027 Z M501.366478,525.985621 L502.610554,780.715576 L418.611555,781.125819 L418.059047,668.019646 L304.420515,781.657961 L245.023545,722.260992 L357.298068,609.986686 L243.641019,609.985621 L243.641019,525.985621 L501.366478,525.985621 Z M721.579485,244.396974 L780.976455,303.793944 L669.202563,415.567618 L782.858981,415.569314 L782.858981,499.569314 L525.133522,499.569314 L523.889446,244.839359 L607.888445,244.429117 L608.440878,357.535365 L721.579485,244.396974 Z" id="形状" fill="rgba(255,255,255,0.7)" fill-rule="nonzero"></path>
        </g>
    </g>
</svg>