<?xml version="1.0" standalone="no"?><!DOCTYPE svg PUBLIC "-//W3C//DTD SVG 1.1//EN" "http://www.w3.org/Graphics/SVG/1.1/DTD/svg11.dtd"><svg class="icon" width="48px" height="48.00px" viewBox="0 0 1024 1024" version="1.1" xmlns="http://www.w3.org/2000/svg"><path fill="#ffffff" d="M558.494 123.13l0.002 370.508c64.077 38.21 106.998 108.208 106.998 188.232 0 120.95-98.05 219-219 219s-219-98.05-219-219c0-80.024 42.92-150.023 106.998-188.232l0.002-370.508h224z m-102 118.237h-20v387.427c-25.046 4.69-44 26.67-44 53.076 0 29.823 24.176 54 54 54 29.823 0 54-24.177 54-54 0-26.142-18.577-47.946-43.25-52.93l-0.75-0.146V241.367z m340.012 122v72h-190v-72h190z m0-114v72h-190v-72h190z m0-114v72h-190v-72h190z" /></svg>