<?xml version="1.0" standalone="no"?><!DOCTYPE svg PUBLIC "-//W3C//DTD SVG 1.1//EN" "http://www.w3.org/Graphics/SVG/1.1/DTD/svg11.dtd"><svg class="icon" width="48px" height="48.00px" viewBox="0 0 1024 1024" version="1.1" xmlns="http://www.w3.org/2000/svg"><path fill="#ffffff" d="M210.423 902.258c-37.555 0-68-30.445-68-68a68 68 0 0 1 4.05-23.118l186.678-516.398-0.001-89h-6.65c-23.196 0-42-18.804-42-42s18.804-42 42-42h354c23.196 0 42 18.804 42 42s-18.804 42-42 42h-6.568l0.857 92.145 202.014 511.388c13.798 34.929-3.332 74.43-38.26 88.227a68 68 0 0 1-24.984 4.756H210.423zM536 763.131c-13.255 0-24 10.746-24 24 0 13.255 10.745 24 24 24s24-10.745 24-24c0-13.254-10.745-24-24-24z m-233.35 9.5c-8.008 0-14.5 6.492-14.5 14.5 0 8.009 6.492 14.5 14.5 14.5 8.009 0 14.5-6.491 14.5-14.5 0-8.008-6.491-14.5-14.5-14.5z m383.884-81.5c-26.51 0-48 21.49-48 48s21.49 48 48 48 48-21.49 48-48-21.49-48-48-48z m-271-33c-18.225 0-33 14.775-33 33 0 18.226 14.775 33 33 33 18.226 0 33-14.774 33-33 0-18.225-14.774-33-33-33z m139.617-96c-13.255 0-24 10.746-24 24 0 13.255 10.745 24 24 24 13.254 0 24-10.745 24-24 0-13.254-10.746-24-24-24z m34.776-356.39H417.15V309.46l-64.438 178.254 2.17 0.45 2.144 0.43 2.12 0.41 1.05 0.198 2.081 0.381 2.057 0.362 2.03 0.343c16.487 2.719 30.455 3.497 41.905 2.334 3.092-0.314 6.436-0.78 9.993-1.374l1.657-0.284 1.686-0.302c0.567-0.104 1.138-0.21 1.714-0.32l1.742-0.336 0.881-0.175 1.782-0.361 0.9-0.187 1.819-0.385 0.919-0.198 1.854-0.407 1.878-0.422 1.899-0.436 0.957-0.223 1.93-0.457 1.95-0.469 1.969-0.481 1.986-0.494 2.003-0.505 2.019-0.516 3.056-0.793 2.056-0.541 2.068-0.551 3.124-0.843 3.148-0.861 2.111-0.584 4.246-1.187 4.273-1.213 4.06-1.165 4.072-1.182 4.078-1.193 4.077-1.202 4.07-1.209 4.06-1.21 12.04-3.619 13.623-4.102 5.639-1.687 5.489-1.63 3.566-1.049 3.485-1.015 3.398-0.98 3.304-0.938 2.854-0.798 3.45-0.947 2.662-0.714 1.936-0.508 1.261-0.326 2.449-0.618 1.77-0.433 1.147-0.274 1.67-0.388 1.609-0.36 1.037-0.222 1.008-0.21 0.98-0.197 0.948-0.182 0.919-0.168 0.887-0.154 0.432-0.071 0.84-0.132 0.808-0.116c0.132-0.018 0.263-0.036 0.392-0.052l0.759-0.093c0.123-0.015 0.245-0.028 0.366-0.041 23.415-2.494 44.82-3.11 64.22-1.847l-52.316-132.43-1.011-108.512z" /></svg>