<?xml version="1.0" standalone="no"?><!DOCTYPE svg PUBLIC "-//W3C//DTD SVG 1.1//EN" "http://www.w3.org/Graphics/SVG/1.1/DTD/svg11.dtd"><svg t="1672796111676" class="icon" viewBox="0 0 1024 1024" version="1.1" xmlns="http://www.w3.org/2000/svg" p-id="13596" xmlns:xlink="http://www.w3.org/1999/xlink" width="200" height="200"><path d="M958.506667 548.053333a64 64 0 0 0-57.6-36.053333h-104.32v-170.666667a21.333333 21.333333 0 0 0-42.666667 0v170.666667h-42.666667V277.333333a21.333333 21.333333 0 0 0-42.666666 0v234.666667h-33.706667l-109.226667-109.226667a64 64 0 0 0-45.44-18.773333h-100.266666l-87.466667-104.96a64 64 0 0 0-49.066667-23.04h-22.826666V192a21.333333 21.333333 0 1 0-42.666667 0v64a64 64 0 0 0-64 64v192A64 64 0 0 0 64 542.293333a64 64 0 0 0-2.346667 64s56.746667 101.546667 95.146667 169.386667A85.333333 85.333333 0 0 0 239.786667 853.333333a82.986667 82.986667 0 0 0 61.866666-27.52 82.986667 82.986667 0 0 0 123.733334 0 83.2 83.2 0 0 0 123.733333 0 82.986667 82.986667 0 0 0 123.733333 0 82.773333 82.773333 0 0 0 144.426667-49.28c42.666667-51.413333 133.546667-160.64 133.76-161.066666a64 64 0 0 0 7.466667-67.413334zM156.586667 320a21.333333 21.333333 0 0 1 21.333333-21.333333h65.28a21.333333 21.333333 0 0 1 16.426667 7.68l64 77.653333H156.586667v-64z m258.986666 106.666667h64a21.333333 21.333333 0 0 1 15.146667 6.186666L574.506667 512H156.586667v-85.333333h258.986666zM917.333333 588.8s-96.64 116.693333-137.813333 165.546667a21.333333 21.333333 0 0 0-4.906667 15.146666 40.533333 40.533333 0 1 1-81.066666 0 21.333333 21.333333 0 0 0-42.666667 0 40.533333 40.533333 0 1 1-81.066667 0 21.333333 21.333333 0 0 0-42.666666 0 40.533333 40.533333 0 1 1-81.066667 0 21.333333 21.333333 0 0 0-42.666667 0 40.533333 40.533333 0 1 1-81.066666 0 21.333333 21.333333 0 0 0-42.666667 0 40.533333 40.533333 0 0 1-40.533333 40.533334 42.666667 42.666667 0 0 1-40.533334-42.666667v-1.28a36.266667 36.266667 0 0 0-2.133333-8.106667v-1.066666c-38.186667-67.413333-96.64-171.946667-96.64-171.946667a21.333333 21.333333 0 0 1 19.2-30.293333h781.866667a21.333333 21.333333 0 0 1 19.2 11.946666A21.333333 21.333333 0 0 1 917.333333 588.8z" fill="#CE4141" p-id="13597"></path><path d="M220.586667 618.666667m-21.333334 0a21.333333 21.333333 0 1 0 42.666667 0 21.333333 21.333333 0 1 0-42.666667 0Z" fill="#CE4141" p-id="13598"></path><path d="M305.92 618.666667m-21.333333 0a21.333333 21.333333 0 1 0 42.666666 0 21.333333 21.333333 0 1 0-42.666666 0Z" fill="#CE4141" p-id="13599"></path><path d="M391.253333 618.666667m-21.333333 0a21.333333 21.333333 0 1 0 42.666667 0 21.333333 21.333333 0 1 0-42.666667 0Z" fill="#CE4141" p-id="13600"></path><path d="M476.586667 618.666667m-21.333334 0a21.333333 21.333333 0 1 0 42.666667 0 21.333333 21.333333 0 1 0-42.666667 0Z" fill="#CE4141" p-id="13601"></path><path d="M561.92 618.666667m-21.333333 0a21.333333 21.333333 0 1 0 42.666666 0 21.333333 21.333333 0 1 0-42.666666 0Z" fill="#CE4141" p-id="13602"></path><path d="M647.253333 618.666667m-21.333333 0a21.333333 21.333333 0 1 0 42.666667 0 21.333333 21.333333 0 1 0-42.666667 0Z" fill="#CE4141" p-id="13603"></path><path d="M732.586667 618.666667m-21.333334 0a21.333333 21.333333 0 1 0 42.666667 0 21.333333 21.333333 0 1 0-42.666667 0Z" fill="#CE4141" p-id="13604"></path><path d="M817.92 618.666667m-21.333333 0a21.333333 21.333333 0 1 0 42.666666 0 21.333333 21.333333 0 1 0-42.666666 0Z" fill="#CE4141" p-id="13605"></path></svg>