<?xml version="1.0" standalone="no"?><!DOCTYPE svg PUBLIC "-//W3C//DTD SVG 1.1//EN" "http://www.w3.org/Graphics/SVG/1.1/DTD/svg11.dtd"><svg t="1672881215852" class="icon" viewBox="0 0 1024 1024" version="1.1" xmlns="http://www.w3.org/2000/svg" p-id="8488" xmlns:xlink="http://www.w3.org/1999/xlink" width="200" height="200"><path d="M506.242098 506.242098m-506.242098 0a506.242098 506.242098 0 1 0 1012.484197 0 506.242098 506.242098 0 1 0-1012.484197 0Z" fill="#29CCA4" p-id="8489"></path><path d="M346.313443 687.876197c14.856393 0 28.873443 5.741115 39.482754 16.182557l24.945311 24.525639c7.050492 6.94977 18.549508 6.94977 25.616787 0l24.928525-24.525639a55.984262 55.984262 0 0 1 39.499541-16.182557 56.068197 56.068197 0 0 1 39.667409 16.333639l24.105968 23.921312c3.458098 3.407738 8.007344 5.287869 12.858754 5.287868 4.952131-0.016787 9.534951-1.930492 12.976262-5.405377l23.182689-23.367344a55.984262 55.984262 0 0 1 39.549901-16.669377h0.453246c14.60459 0 28.40341 5.539672 38.945574 15.645377l40.120656 35.252459a19.036328 19.036328 0 0 1-25.146754 28.588066L667.060459 731.908197l-0.738623-0.671476a18.297705 18.297705 0 0 0-25.717508 0.184656l-23.182689 23.384131a55.950689 55.950689 0 0 1-39.768131 16.669377h-0.235016c-14.957115 0-29.041311-5.808262-39.650623-16.350426l-24.105967-23.904525a18.331279 18.331279 0 0 0-25.683935-0.05036l-24.928524 24.542426a56.001049 56.001049 0 0 1-39.499541 16.16577 56.001049 56.001049 0 0 1-39.516328-16.16577l-24.928525-24.542426a18.331279 18.331279 0 0 0-25.683934 0.05036 19.774951 19.774951 0 0 1-0.671476 0.671476l-39.549901 35.420328a19.036328 19.036328 0 1 1-25.398558-28.336263l39.197377-35.151737a55.984262 55.984262 0 0 1 39.180591-15.964328zM501.524984 235.016393l2.652327 0.083935a38.710557 38.710557 0 0 1 36.05823 38.609836v12.489443l119.791213 46.499672c7.319082 2.836984 12.136918 9.887475 12.136918 17.726951v85.277377l67.31541 29.175606c10.004984 4.331016 13.614164 16.702951 7.520525 25.751082l-100.184132 160.801574a14.235279 14.235279 0 0 1-9.400655 6.009705 92.495738 92.495738 0 0 0-50.008131 26.170754 14.352787 14.352787 0 0 1-20.295345 0.083934l-0.721836-0.721836a92.613246 92.613246 0 0 0-65.418492-27.026885h-0.201442a92.613246 92.613246 0 0 0-65.334558 26.775082l-1.846557 1.796197a14.352787 14.352787 0 0 1-20.144262 0l-1.812984-1.812984a92.562885 92.562885 0 0 0-47.506885-25.046033 14.218492 14.218492 0 0 1-9.064918-6.043278l-100.284853-160.98623a17.441574 17.441574 0 0 1 7.520525-25.751082l64.847738-28.101246v-85.109508c0-7.856262 4.817836-14.906754 12.153705-17.743738l123.517901-47.926557v-12.271213A38.710557 38.710557 0 0 1 501.54177 235.016393z m-0.235017 76.883935l-136.091278 52.794754v55.581377l122.057442-52.878689a34.262033 34.262033 0 0 1 27.245115 0l119.606557 51.821115V363.436066l-132.817836-51.535738z" fill="#FFFFFF" p-id="8490"></path></svg>